<svg id="Layer_1" enable-background="new 0 0 511.337 511.337" height="512" viewBox="0 0 511.337 511.337" width="512" xmlns="http://www.w3.org/2000/svg"><path d="m255.668 0c-93.92 0-170.33 76.414-170.33 170.34 0 93.92 76.41 170.33 170.33 170.33s170.33-76.41 170.33-170.33c0-93.926-76.41-170.34-170.33-170.34z" fill="#99d856"/><path d="m369.526 282.012c-12.351-52.278-59.276-90.002-113.857-90.002-54.617 0-101.515 37.761-113.857 90.002-1.862 7.882.974 16.132 7.289 21.202 61.849 49.665 150.612 50.208 213.137 0 6.313-5.07 9.15-13.32 7.288-21.202z" fill="#e0e0e0"/><g fill="#fe929f"><path d="m313.185 390.153c-8.201-8.201-21.498-8.201-29.699 0l-27.817 27.817-27.818-27.817c-8.201-8.2-21.497-8.2-29.698 0-8.201 8.201-8.201 21.498 0 29.699l27.817 27.817-27.817 27.817c-8.201 8.201-8.201 21.498 0 29.699 8.199 8.199 21.497 8.202 29.698 0l27.818-27.817 27.817 27.817c8.203 8.201 21.497 8.2 29.699 0 8.2-8.201 8.2-21.498 0-29.699l-27.817-27.817 27.817-27.817c8.2-8.201 8.2-21.498 0-29.699z"/><path d="m477.368 447.67 27.817-27.817c8.2-8.201 8.2-21.498 0-29.699-8.201-8.201-21.498-8.201-29.699 0l-27.817 27.817-27.817-27.817c-8.201-8.201-21.498-8.201-29.699 0-8.2 8.201-8.2 21.498 0 29.699l27.817 27.817-27.817 27.817c-8.2 8.201-8.2 21.498 0 29.699 8.2 8.2 21.498 8.201 29.699 0l27.817-27.817 27.817 27.817c8.2 8.2 21.498 8.201 29.699 0 8.2-8.201 8.2-21.498 0-29.699z"/><path d="m121.184 390.153c-8.201-8.201-21.498-8.199-29.698 0l-27.817 27.818-27.817-27.818c-8.2-8.2-21.497-8.2-29.698 0-8.201 8.201-8.201 21.498 0 29.699l27.816 27.818-27.817 27.817c-8.201 8.201-8.201 21.498 0 29.699 8.2 8.2 21.496 8.201 29.698 0l27.817-27.818 27.817 27.818c8.2 8.2 21.496 8.201 29.698 0 8.201-8.201 8.201-21.498 0-29.699l-27.816-27.817 27.817-27.817c8.201-8.202 8.201-21.499 0-29.7z"/></g><path d="m255.668 106.67c-35.106 0-63.667 28.561-63.667 63.667 0 35.105 28.561 63.666 63.667 63.666s63.667-28.561 63.667-63.666c0-35.107-28.56-63.667-63.667-63.667z" fill="#ffdfba"/></svg>